<?xml version="1.0" encoding="iso-8859-1"?>
<!DOCTYPE svg PUBLIC "-//W3C//DTD SVG 1.0//EN" "http://www.w3.org/TR/2001/REC-SVG-20010904/DTD/svg10.dtd">
<!-- Creator: CorelDRAW -->
<svg xmlns="http://www.w3.org/2000/svg" xmlns:odm="http://product.corel.com/CGS/11/cddns/" xml:space="preserve" width="8.5in" height="11in" style="shape-rendering:geometricPrecision; text-rendering:geometricPrecision; image-rendering:optimizeQuality; fill-rule:evenodd"
     viewBox="0 0 8500 11000">
 <defs>
  <style type="text/css">
   <![CDATA[
    .fil0 {fill:#000000}
   ]]>
  </style>
 </defs>
 <g id="Layer 1">
  <path class="fil0" d="M6159 7155c-7,-1 -14,-1 -21,-2 -8,0 -19,0 -33,0 -149,0 -267,30 -354,88 -87,59 -143,147 -168,264l576 0 0 135 -584 0c20,127 74,223 162,287 88,65 209,97 362,97 16,0 29,0 37,0 8,0 16,-1 23,-2l0 139 -47 0c-89,0 -167,-6 -235,-20 -68,-13 -125,-33 -171,-59 -96,-56 -170,-126 -220,-210 -51,-84 -76,-178 -76,-282 0,-105 25,-199 76,-282 50,-83 124,-153 220,-208 46,-27 103,-47 171,-60 68,-14 146,-21 235,-21l47 0 0 136zm-2584 1006l153 -1017c8,-46 22,-81 43,-104 21,-23 50,-35 85,-35 30,0 56,10 78,29 22,19 39,48 51,85l269 813 267 -813c12,-37 29,-66 51,-85 22,-19 48,-29 78,-29 35,0 64,12 85,35 22,23 36,58 43,104l153 1017 -153 0 -138 -941 -276 838c-13,41 -29,70 -46,89 -17,18 -39,27 -64,27 -26,0 -48,-9 -65,-26 -17,-18 -33,-48 -47,-90l-276 -838 -136 941 -155 0zm-718 0l0 -507 -517 0 0 507 -160 0 0 -717c0,-136 38,-244 114,-324 76,-80 177,-120 304,-120 127,0 228,40 305,120 76,80 114,188 114,324l0 717 -160 0zm0 -651l0 -63c0,-99 -23,-175 -67,-228 -45,-52 -109,-79 -192,-79 -84,0 -147,27 -192,79 -44,53 -66,129 -66,228l0 64 517 -1zm-739 -3536c-45,-42 -82,-44 -121,-80 -12,-10 -11,-12 -27,-12 -8,0 -16,0 -24,0 -16,0 -17,-5 -27,-17 -5,-6 -10,-11 -15,-17 -12,-14 -17,-10 -35,-13 -48,-8 -80,-37 -90,-83 -6,-29 -3,-30 -22,-53 -41,-50 -7,-98 -56,-145 -20,-20 -20,-43 -20,-72 0,-30 5,-46 5,-77 0,-26 2,-26 23,-44 7,-6 14,-12 22,-19 0,-74 80,-133 138,-188 23,-22 22,-23 54,-23 24,0 23,-6 40,-22 33,-31 56,-24 117,-25 108,-114 448,-88 542,78 108,95 129,282 132,428 0,28 6,40 -15,59 -19,16 -16,6 -20,33 -21,116 -186,195 -273,264 -30,23 -36,28 -76,33 -84,10 -168,6 -252,-5zm1114 -75c-71,-47 -159,-75 -168,-181 -5,-5 -10,-9 -15,-14 -8,-7 -17,-14 -25,-22 0,-15 1,-33 1,-50 0,-13 -1,-26 -5,-38 -18,-65 -35,-25 -12,-98 9,-26 17,-41 16,-72 -3,-44 0,-38 26,-70 21,-24 19,-45 19,-85 -1,-30 9,-38 28,-62 66,-81 140,-141 241,-185 42,-19 34,-29 80,-25 45,3 84,-2 118,-17 41,-18 39,-17 97,-14 4,-3 76,3 76,3 22,-2 26,29 51,28 36,-2 37,-2 61,25 132,147 213,220 223,427 2,37 3,39 -21,66 -25,28 -24,47 -23,84 1,36 -2,34 -25,60 -54,61 -76,149 -146,172 -30,11 -35,2 -58,28 -19,23 -18,21 -46,24 -22,2 -28,8 -44,24 -19,18 -25,19 -51,22 -106,15 -208,14 -305,-3 -49,-8 -53,-2 -93,-27zm1236 -17c-25,-23 -119,-60 -119,-84 -15,0 -48,-33 -48,-47 -16,0 -48,-35 -48,-48 -24,0 -41,-50 -60,-87 -6,-12 -13,-22 -20,-29 0,-15 0,-29 0,-44 1,-43 1,-87 2,-130 0,-37 8,-36 29,-65 65,-91 109,-261 226,-301 30,-11 41,-5 63,-27 27,-26 46,-29 81,-29 30,0 37,4 58,-19 19,-21 16,-26 51,-28 63,-4 113,33 178,46 46,10 48,17 86,44 46,33 94,52 110,98 11,28 19,36 35,62 16,26 20,50 42,78 18,24 11,26 17,57 9,43 7,86 4,129 -3,32 -4,34 -24,57 -24,29 -25,49 -25,89 0,34 -6,30 -24,56 -27,37 -24,76 -68,89 -47,14 -24,5 -55,37 -25,26 -73,48 -109,69 -37,20 -39,22 -82,27 -103,11 -206,24 -300,0zm1172 21c-26,-21 -47,-21 -84,-21 -32,0 -33,-4 -54,-28 -18,-22 -26,-14 -51,-22 -40,-13 -67,-46 -98,-79 -30,-32 -29,-31 -28,-76 1,-25 -2,-50 -21,-67 -20,-18 -34,-35 -35,-64 0,-32 8,-46 8,-78 -1,-39 7,-40 31,-70 24,-30 43,-69 54,-105 13,-45 24,-57 47,-98 24,-43 33,-86 87,-104 14,-4 32,-11 47,-20 15,-10 22,-20 38,-33 8,-6 15,-14 22,-22 17,-20 19,-23 45,-28 92,-15 183,-3 275,3 28,2 34,-1 53,18 16,17 31,27 50,33 41,12 32,15 67,35 34,21 90,42 112,95 10,22 7,31 25,47 26,24 27,23 26,57 0,18 0,40 4,58 11,43 35,20 36,69 2,45 6,97 8,144 1,38 -1,36 -22,64 -41,53 -52,120 -92,174 -17,22 -11,24 -23,50 -17,43 -45,44 -71,49 -7,7 -13,14 -20,21 -22,25 -23,21 -56,19 -102,-6 -206,-6 -313,3 -39,3 -39,0 -67,-24zm-3774 1049c-4,-11 -8,-22 -13,-34 -20,-43 -30,-41 -30,-94 1,-189 2,-378 3,-566 10,-32 29,-66 74,-94 24,-14 38,-18 65,-18 1408,0 2815,-1 4223,-2 57,9 92,52 117,117 0,191 60,504 -32,678 -33,62 -56,49 -122,49 -1414,0 -2827,0 -4241,0 -27,0 -33,-9 -44,-36zm39 931c-40,-40 -82,-139 -82,-195 0,-144 0,-288 0,-433 0,-27 3,-28 12,-51 7,-17 21,-37 31,-47 12,-12 22,-17 38,-23 29,-10 33,-19 65,-19 1367,0 2733,-1 4101,-2 64,0 86,2 142,25 42,14 53,39 80,54 52,30 51,87 52,149 0,129 4,221 5,352 0,30 -2,43 -11,71 -6,20 -14,44 -21,44 -47,75 -40,57 -71,73 -44,23 -57,28 -107,28 -1391,0 -2782,0 -4172,0 -34,0 -38,-2 -62,-26zm32 951c-5,-5 -34,-8 -40,-15 -22,-23 -26,-29 -44,-57 -17,-27 -28,-68 -34,-116 -17,-133 0,-323 7,-415 4,-41 37,-100 66,-129 32,-32 90,-65 134,-65 1417,-1 2835,-1 4253,-1 34,4 55,31 70,67 0,162 -1,323 -2,485 0,55 6,74 -31,116 -38,42 -74,75 -118,95 -52,24 -58,32 -117,32 -1382,1 -2764,2 -4144,3z"/>
 </g>
</svg>
